inDegrees=yes
name=ik_lifting_orientations
DataType=double
version=3
OpenSimVersion=4.5-2024-01-10-34fd6af
endheader
time	pelvis_tilt	pelvis_list	pelvis_rotation	pelvis_tx	pelvis_ty	pelvis_tz	hip_flexion_r	hip_adduction_r	hip_rotation_r	knee_angle_r	knee_angle_r_beta	ankle_angle_r	subtalar_angle_r	mtp_angle_r	hip_flexion_l	hip_adduction_l	hip_rotation_l	knee_angle_l	knee_angle_l_beta	ankle_angle_l	subtalar_angle_l	mtp_angle_l	lumbar_extension	lumbar_bending	lumbar_rotation	arm_flex_r	arm_add_r	arm_rot_r	elbow_flex_r	pro_sup_r	wrist_flex_r	wrist_dev_r	arm_flex_l	arm_add_l	arm_rot_l	elbow_flex_l	pro_sup_l	wrist_flex_l	wrist_dev_l
1.2	-4.983782066460507	-4.130695354040292	-100.7584969826365	0	0.9399999998679526	0	45.36642383744324	-10.58312460390696	0	59.99239204718091	1.047064767370568	-5.235375485188419	0	0	45.36642383744324	-10.58312460390696	0	59.99239204718091	1.047064767370568	-5.235375485188419	0	0	-1.169319884634677	1.518622154494064	10.54902389709183	15.39638155833137	-32.09564034987149	-2.980248328464253	81.76796177005042	1.565393816512109	0	0	0	-12.18224691820063	0	88.46556079536219	1.565393816512109	0	0
1.21	-3.840252090996744	-3.278636257533376	-99.19350371226228	0	0.9399999998679526	0	45.36616042567858	-10.58165531023829	0	59.99239640673982	1.047064843459225	-5.234601653128898	0	0	45.36616042567858	-10.58165531023829	0	59.99239640673982	1.047064843459225	-5.234601653128898	0	0	-0.4401651823470911	0.8377673928795617	9.972258129692754	16.90068734102697	-32.15737573407635	-3.861859856160781	86.13712211292811	1.564611458415585	0	0	0	-12.18328259283658	0	88.46632758764612	1.564611458415585	0	0
1.22	-3.258280163017989	-2.820795961090206	-98.30972793266722	0	0.9399999998679526	0	45.36590951124827	-10.58025781960018	0	59.99240055923445	1.047064915933929	-5.233866152005502	0	0	45.36590951124827	-10.58025781960018	0	59.99240055923445	1.047064915933929	-5.233866152005502	0	0	-0.2260218462669417	0.6255578599949646	10.26165817272636	18.23719429683001	-32.06257537368459	-5.300789371053813	88.69533346718146	1.563866118510215	0	0	0	-12.18426932448172	0	88.4670580982617	1.563866118510215	0	0
1.23	-2.104861744341258	-1.882230015705863	-96.50043034516489	0	0.9399999998679526	0	45.36566475904371	-10.57889766560155	0	59.9924046119292	1.047064986666796	-5.233150894999959	0	0	45.36566475904371	-10.57889766560155	0	59.9924046119292	1.047064986666796	-5.233150894999959	0	0	0.5235328070157969	-0.1505718081331786	8.624371362798852	20.07338109554366	-30.77745100480454	-5.813637358210697	95.51603549364171	1.563138823575079	0	0	0	-12.18523240863458	0	88.46777092294634	1.563138823575079	0	0
1.24	-1.59158443862914	-1.448645327820658	-95.71016611144493	0	0.9399999998679526	0	45.36554630241314	-10.57824143173618	0	59.99240657666134	1.04706502095784	-5.23280610881544	0	0	45.36554630241314	-10.57824143173618	0	59.99240657666134	1.04706502095784	-5.23280610881544	0	0	0.7730685570887699	-0.4270822034487683	7.914862202909628	21.95717101273895	-30.28957729989358	-5.437696162494715	98.08330557043155	1.562786559045486	0	0	0	-12.18569915911224	0	88.46811617884046	1.562786559045486	0	0
1.25	-1.136006447691913	-1.057414164024072	-94.91669464192661	0	0.9399999998679526	0	45.3654381025387	-10.57764280970608	0	59.99240837228076	1.047065052297311	-5.232491723552378	0	0	45.3654381025387	-10.57764280970608	0	59.99240837228076	1.047065052297311	-5.232491723552378	0	0	0.9447774643302165	-0.6549252110367335	7.131107204778298	23.21319073316171	-29.73149955322818	-5.535544454721213	99.27162219799382	1.562464705716813	0	0	0	-12.18612570818079	0	88.46843162859862	1.562464705716813	0	0
1.26	-0.736484651040355	-0.6926662038313204	-94.10335266038611	0	0.9399999998679526	0	45.36526004005917	-10.57665665857742	0	59.99241132277712	1.047065103793187	-5.23197383195411	0	0	45.36526004005917	-10.57665665857742	0	59.99241132277712	1.047065103793187	-5.23197383195411	0	0	0.6500161041500953	-0.4818149227465007	6.688983848601216	25.81369580045424	-29.85621380075258	-5.869140386392782	99.92163544989393	1.561935304189348	0	0	0	-12.18682699720696	0	88.46895049717851	1.561935304189348	0	0
1.27	-0.323200213379025	-0.3136724292582106	-93.43356874780578	0	0.9399999998679526	0	45.36515172181954	-10.57605824258894	0	59.99241311978032	1.04706513515681	-5.231659792478756	0	0	45.36515172181954	-10.57605824258894	0	59.99241311978032	1.04706513515681	-5.231659792478756	0	0	0.8555888347441357	-0.7003455606548999	6.17046333336112	28.2452629216628	-29.39428005654703	-5.51621352092264	102.9652134875356	1.561613081383733	0	0	0	-12.18725402822358	0	88.46926630906474	1.561613081383733	0	0
1.28	0.0261400588266241	0.02300655377398081	-92.85458913276358	0	0.9399999998679526	0	45.36494164857326	-10.57489642420431	0	59.9924165992379	1.047065195884801	-5.231050114675845	0	0	45.36494164857326	-10.57489642420431	0	59.9924165992379	1.047065195884801	-5.231050114675845	0	0	0.9691329404703943	-0.8528165583769197	5.594780101951221	30.95384961187195	-28.7902455217343	-4.874186264046295	104.2300355396767	1.560988491174898	0	0	0	-12.18808137714241	0	88.46987847246014	1.560988491174898	0	0
1.29	0.2978367281013072	0.3015502497538078	-92.46995110709055	0	0.9399999998679526	0	45.3646925837182	-10.57352162501519	0	59.99242072626448	1.047065267915003	-5.23032920783295	0	0	45.3646925837182	-10.57352162501519	0	59.99242072626448	1.047065267915003	-5.23032920783295	0	0	0.9803798883574029	-0.89444429546843	5.335616258878202	35.89211428855302	-28.22370296682511	-3.973402132080225	100.8019911189614	1.560247747251837	0	0	0	-12.18906279224139	0	88.47060447859593	1.560247747251837	0	0
1.3	0.9403542549423636	0.8991394574705367	-91.18900120290662	0	0.9399999998679526	0	45.36449874253049	-10.5724536421357	0	59.99242393962761	1.04706532399877	-5.229769581539264	0	0	45.36449874253049	-10.5724536421357	0	59.99242393962761	1.04706532399877	-5.229769581539264	0	0	1.519843524864098	-1.47396994732069	4.142392021285916	38.48273847420895	-27.67270440786979	-3.811813574443224	100.0867491009923	1.559671072152095	0	0	0	-12.1898269918545	0	88.47116968022073	1.559671072152095	0	0
1.31	1.258606834529983	1.248133946174959	-90.65940570524418	0	0.9399999998679526	0	45.36435262207307	-10.57164982416726	0	59.99242636287656	1.047065366292443	-5.229348619449454	0	0	45.36435262207307	-10.57164982416726	0	59.99242636287656	1.047065366292443	-5.229348619449454	0	0	1.738107308950342	-1.699950422823456	3.714021940008571	41.1451331079905	-27.01227101134605	-2.439186853706802	99.88067301187232	1.559236254169721	0	0	0	-12.19040331003241	0	88.47159584711135	1.559236254169721	0	0
1.32	1.780921930367695	1.782483460141641	-89.95698718597204	0	0.9399999998679526	0	45.36280742204805	-10.56571979767601	0	59.9924586341435	1.047065929532304	-5.226484541860582	0	0	45.36280742204805	-10.56571979767601	0	59.9924586341435	1.047065929532304	-5.226484541860582	0	0	2.206393049341402	-2.194759453176854	3.108933379220019	43.52123264326584	-24.82679482200991	-0.5092903161172808	104.5615006172181	1.554187127312392	0	0	0	-12.19761112094986	0	88.47654454129153	1.554187127312392	0	0
1.33	2.067960234501432	2.079605474049147	-89.54021555976644	0	0.9399999998679526	0	45.36264297605489	-10.5648212571852	0	59.99246136063189	1.047065977118504	-5.226015145306527	0	0	45.36264297605489	-10.5648212571852	0	59.99246136063189	1.047065977118504	-5.226015145306527	0	0	2.443911603556697	-2.469171710826879	2.767700848899072	45.94054657557838	-23.5997088019724	0.6915042759789837	103.9514051155711	1.553697296356565	0	0	0	-12.19826075808238	0	88.47702462666483	1.553697296356565	0	0
1.34	2.313425442307384	2.330964755075413	-89.16138186498533	0	0.9399999998679526	0	45.36121929636581	-10.55943631414009	0	59.99249120884917	1.047066498068171	-5.223426112257865	0	0	45.36121929636581	-10.55943631414009	0	59.99249120884917	1.047066498068171	-5.223426112257865	0	0	2.840915877884169	-2.893705334407781	2.365506501661537	47.74553752089647	-20.86058057693773	2.138322709327221	108.4157422318958	1.549032760965648	0	0	0	-12.20493213647164	0	88.48159637991604	1.549032760965648	0	0
1.35	2.568584052314087	2.640183435053072	-88.84473401331097	0	0.9399999998679526	0	45.36109243794704	-10.55874851725107	0	59.99249331425858	1.047066534814497	-5.223067735978438	0	0	45.36109243794704	-10.55874851725107	0	59.99249331425858	1.047066534814497	-5.223067735978438	0	0	3.27188223338778	-3.311903871740462	1.91205141671417	49.50743601432843	-19.53585963750364	3.16303425441398	107.5076935262069	1.548654366512288	0	0	0	-12.20543447484356	0	88.48196724594509	1.548654366512288	0	0
1.36	2.773528416433841	2.830109290696321	-88.73414102829207	0	0.9399999998679526	0	45.3609271956859	-10.5578531348796	0	59.9924960559295	1.047066582665682	-5.222601363941934	0	0	45.3609271956859	-10.5578531348796	0	59.9924960559295	1.047066582665682	-5.222601363941934	0	0	3.687677704406479	-3.780548215911467	1.444877861003488	51.19682772212184	-17.81794237193673	4.324667745129595	106.1732363051026	1.548161488892823	0	0	0	-12.20608876500724	0	88.4824503174175	1.548161488892823	0	0
1.37	2.991298211845748	3.063514703940595	-88.82024660519754	0	0.9399999998679526	0	45.3608105224794	-10.55722190303351	0	59.9924979928314	1.047066616470997	-5.222272748956529	0	0	45.3608105224794	-10.55722190303351	0	59.9924979928314	1.047066616470997	-5.222272748956529	0	0	4.169762466769665	-4.206401492216044	1.440202962179879	52.7850688634308	-16.79596542742753	4.639721780432975	104.9894981918705	1.54781337685122	0	0	0	-12.20655098497683	0	88.48279150353125	1.54781337685122	0	0
1.38	3.358799809548831	3.419989594666075	-88.71930054923371	0	0.9399999998679526	0	45.36063781971155	-10.5562876098373	0	59.99250085791093	1.047066666476069	-5.22178648839784	0	0	45.36063781971155	-10.5562876098373	0	59.99250085791093	1.047066666476069	-5.22178648839784	0	0	4.631553372904953	-4.729260400679374	1.120420318558468	56.25451868112514	-15.7728114280126	5.308422054944294	102.714016454513	1.547298181467206	0	0	0	-12.20723493389704	0	88.48329644874605	1.547298181467206	0	0
1.39	3.55237327418616	3.646599365789932	-88.58141077427462	0	0.9399999998679526	0	45.36052823055854	-10.55569585797229	0	59.99250267746188	1.047066698233224	-5.221478685022284	0	0	45.36052823055854	-10.55569585797229	0	59.99250267746188	1.047066698233224	-5.221478685022284	0	0	4.946365912448925	-5.024410439510643	0.954175567245631	57.87500477162133	-15.3425121772184	5.694667875968205	102.0094277061014	1.546971130901682	0	0	0	-12.20766924728274	0	88.48361699242149	1.546971130901682	0	0
1.4	3.825965383460775	3.902468438863632	-88.70370615624554	0	0.9399999998679526	0	45.36036022282502	-10.55478906396278	0	59.99250546600339	1.047066746902454	-5.221007157948649	0	0	45.36036022282502	-10.55478906396278	0	59.99250546600339	1.047066746902454	-5.221007157948649	0	0	5.245111392720053	-5.352724425685992	1.094046320589759	60.86901327981625	-14.83753329205406	6.37080994788418	99.81637032019762	1.546469763272812	0	0	0	-12.20833500209227	0	88.48410838500513	1.546469763272812	0	0
1.41	3.999268285213631	4.084003277763986	-88.8729538824488	0	0.9399999998679526	0	45.36024561269765	-10.55417107089714	0	59.99250736845363	1.047066780106475	-5.220685936480421	0	0	45.36024561269765	-10.55417107089714	0	59.99250736845363	1.047066780106475	-5.220685936480421	0	0	5.496811844780148	-5.569485702267443	1.068575168513508	62.34671566094082	-14.58934215393766	6.452022322770652	99.53121139389891	1.546127702283272	0	0	0	-12.20878925250385	0	88.48444364046485	1.546127702283272	0	0
1.42	4.198543231592496	4.259255742105071	-89.26780355671688	0	0.9399999998679526	0	45.36012940301935	-10.55354535517322	0	59.99250929854725	1.047066813792963	-5.220360853636373	0	0	45.36012940301935	-10.55354535517322	0	59.99250929854725	1.047066813792963	-5.220360853636373	0	0	5.676557905685769	-5.705984056304383	1.31698712067782	63.99931020160601	-14.36876364796281	7.142852021283995	99.15230988515624	1.54578076699986	0	0	0	-12.20925007756386	0	88.48478367324689	1.54578076699986	0	0
1.43	4.346058180778242	4.392787504357944	-89.81406392079563	0	0.9399999998679526	0	45.36001489526877	-10.55293105067121	0	59.99251120476194	1.047066847062686	-5.220041988395573	0	0	45.36001489526877	-10.55293105067121	0	59.99251120476194	1.047066847062686	-5.220041988395573	0	0	5.683430742731192	-5.641817289061287	1.319176669943544	65.66954483891104	-13.77235710425739	8.531456549688979	98.40408939516851	1.545438583660895	0	0	0	-12.2097049504194	0	88.48511904864509	1.545438583660895	0	0
